HIERARCHY
ROOT Hips
{
	OFFSET	0.00	0.00	0.00
	CHANNELS 6 Xposition Yposition Zposition Zrotation Xrotation Yrotation
	JOINT Spine
	{
		OFFSET	 0.00	0.01	 0.00
		CHANNELS 3 Zrotation Xrotation Yrotation
		JOINT Spine1
		{
			OFFSET	 0.00	 2.45913012437421	 0.00
			CHANNELS 3 Zrotation Xrotation Yrotation
            JOINT Neck
            {
                OFFSET	 0.00	 2.48462964506057	 0.00
                CHANNELS 3 Zrotation Xrotation Yrotation
                JOINT Head
                {
                    OFFSET	 0.00	 0.927524780924562	 0.00
                    CHANNELS 3 Zrotation Xrotation Yrotation
                    End Site 
                    {
                        OFFSET	 0.00	 1.14999962169752	 0.00
                    }
                }
            }
			JOINT LeftShoulder
			{
				OFFSET	 0.00	 2.48462964506057	 0.00
				CHANNELS 3 Zrotation Xrotation Yrotation
				JOINT LeftUpArm
				{
					OFFSET	 0.00	 1.24881979654096	 0.00
					CHANNELS 3 Zrotation Xrotation Yrotation
					JOINT LeftForeArm
					{
						OFFSET	 0.00	2.59758046908119	 0.00
						CHANNELS 3 Zrotation Xrotation Yrotation
						JOINT LeftHand
						{
							OFFSET	 0.00	2.45542024364365	 0.00
							CHANNELS 3 Zrotation Xrotation Yrotation
							JOINT LeftHandThumb 
							{
								OFFSET	 0.00	0.00	 0.00
								CHANNELS 3 Zrotation Xrotation Yrotation
								End Site
								{
									OFFSET	 0.00	0.00	1.00000003353624
								}
							}
							JOINT L_Wrist_End 
							{
								OFFSET	 0.00	0.99999967115358	 0.00
								CHANNELS 3 Zrotation Xrotation Yrotation
								End Site 
								{
									OFFSET	 0.00	 0.00	 0.00
								}
							}
						}
					}
				}
			}
			JOINT RightShoulder
			{
				OFFSET	 0.00	 2.48462964506057	 0.00
				CHANNELS 3 Zrotation Xrotation Yrotation
				JOINT RightUpArm
				{
					OFFSET	 0.00	 1.24881979654096	 0.00
					CHANNELS 3 Zrotation Xrotation Yrotation
					JOINT RightForeArm
					{
						OFFSET	 0.00	2.59758046908119	 0.00
						CHANNELS 3 Zrotation Xrotation Yrotation
						JOINT RightHand
						{
							OFFSET	 0.00	2.45542024364365	 0.00
							CHANNELS 3 Zrotation Xrotation Yrotation
							JOINT RightHandThumb 
							{
								OFFSET	 0.00	0.00	 0.00
								CHANNELS 3 Zrotation Xrotation Yrotation
								End Site
								{
									OFFSET	 0.00	0.00	1.00000003353624
								}
							}
							JOINT R_Wrist_End 
							{
								OFFSET	 0.00	0.99999967115358	 0.00
								CHANNELS 3 Zrotation Xrotation Yrotation
								End Site 
								{
									OFFSET	 0.00	 0.00	 0.00
								}
							}
						}
					}
				}
			}
		}
	}
	JOINT LeftUpLeg
	{
		OFFSET	 1.2719394002717	 0.00	 0.00
		CHANNELS 3 Zrotation Xrotation Yrotation
		JOINT LeftLowLeg
		{
			OFFSET	 0.00	-4.3429100912261	 0.00
			CHANNELS 3 Zrotation Xrotation Yrotation
			JOINT LeftFoot
			{
				OFFSET	 0.00	-4.48767017425826	 0.00
				CHANNELS 3 Zrotation Xrotation Yrotation
				JOINT LeftToeBase
                {
                    OFFSET	 0.00	0.00	 1.51507020887566
                    CHANNELS 3 Zrotation Xrotation Yrotation
                    End Site 
                    {
                        OFFSET	 0.00	0.00	 0.75000010571191
                    }
                }
			}
		}
	}
	JOINT RightUpLeg
	{
		OFFSET	 -1.2719393604653	 0.00	 0.00
		CHANNELS 3 Zrotation Xrotation Yrotation
		JOINT RightLowLeg
		{
			OFFSET	 0.00	-4.3429100912261	 0.00
			CHANNELS 3 Zrotation Xrotation Yrotation
			JOINT RightFoot
			{
				OFFSET	 0.00	-4.48767017425826	 0.00
				CHANNELS 3 Zrotation Xrotation Yrotation
				JOINT RightToeBase
                {
                    OFFSET	 0.00	0.00	 1.51507020887566
                    CHANNELS 3 Zrotation Xrotation Yrotation
                    End Site 
                    {
                        OFFSET	 0.00	0.00	 0.749999965609858
                    }
                }   
			}
		}
	}
}
MOTION 
Frames:	13 
Frame Time: 0.02 
  -2.8028500366210936 0.8540119934082031 9.2627001953125 -49.0554 82.4543 466.558 0.0476226 -5.12772 -5.883 8.80974 4.80457 -0.698786 -16.966 60.2937 736.503 -17.4927 -89.831 325.756 -114.2899 -3.65146 4.25919 -43.4816 41.2756 22.2504 0.0 108.993 0.0 17.3023 -40.7475 -90.8337 0.0 0.0 0.0 0.0 0.0 0.0 112.7628 -3.81044 -373.155 23.5772 11.8482 9.91041 0.0 98.2652 0.0 27.53 -14.2936 -9.27164 0.0 0.0 0.0 0.0 0.0 0.0 3.07167 -2.58186 17.0597 0.0 13.6858 0.0 -15.5595 -2.1217995 -3.77743 0.0 -31.1395 0.0 11.2256 -9.82173 3.66093 0.0 13.7127 0.0 13.4767 10.5161495 -8.40851 0.0 -40.9255 0.0 
  -2.766159973144531 0.839749984741211 9.25760986328125 -48.7822 82.5837 466.052 0.48487 -5.28362 -5.76037 8.69897 4.86346 -0.640838 -17.2599 59.9598 736.59 -57.7245 -89.4857 285.723 -114.6245 -3.60326 4.55522 -43.1537 41.1328 21.8828 0.0 108.636 0.0 17.0315 -40.6464 -90.4976 0.0 0.0 0.0 0.0 0.0 0.0 113.115204 -3.52284 -373.043 24.5055 12.988 11.0145 0.0 98.6787 0.0 36.4035 1.40569 16.0857 0.0 0.0 0.0 0.0 0.0 0.0 3.03114 -2.71097 16.8511 0.0 14.6864 0.0 -15.299 -2.4978008 -3.40131 0.0 -30.793701 0.0 11.0691 -9.24262 4.47042 0.0 13.2576 0.0 13.8871 10.13624 -8.47538 0.0 -40.5261 0.0 
  -2.729389953613281 0.8250209808349609 9.254730224609375 -48.7516 82.5988 465.907 0.835182 -5.44036 -5.56947 8.99455 4.82612 -0.488524 -17.5281 59.734 736.552 -61.6301 -88.9882 281.915 -115.0999 -3.25714 4.80963 -43.0923 40.8022 21.768 0.0 108.198 0.0 17.0404 -40.47 -90.6372 0.0 0.0 0.0 0.0 0.0 0.0 113.2575 -3.26448 -373.396 24.8119 14.532 10.2586 0.0 99.689 0.0 36.0281 14.4511 33.7636 0.0 0.0 0.0 0.0 0.0 0.0 3.07609 -2.97736 16.3042 0.0 15.78 0.0 -15.1919 -2.8808002 -2.92055 0.0 -30.9957 0.0 10.8319 -8.86177 4.12835 0.0 13.0745 0.0 14.3918 10.06193 -7.52767 0.0 -40.8797 0.0 
  -2.6947500610351565 0.8118119812011719 9.253469848632813 -48.4073 82.5994 465.531 1.43093 -5.39859 -5.4178 8.89889 4.56318 -0.392732 -18.2261 59.5022 737.141 -62.52 -88.5339 280.851 -115.3872 -3.16246 4.93405 -43.1795 40.4614 22.02 0.0 107.681 0.0 17.0401 -40.4807 -90.7861 0.0 0.0 0.0 0.0 0.0 0.0 113.5219 -2.92404 -374.36 24.8185 16.5207 8.98526 0.0 101.681 0.0 30.1642 23.1721 46.9211 0.0 0.0 0.0 0.0 0.0 0.0 3.1303 -3.38808 15.3989 0.0 17.1443 0.0 -15.1681 -3.3237 -2.22664 0.0 -31.0589 0.0 10.5775 -8.64662 3.29724 0.0 13.1685 0.0 14.5999 10.18752 -6.28159 0.0 -40.892998 0.0 
  -2.6629400634765625 0.7979550170898437 9.2522802734375 -47.9217 82.583 465.159 2.01912 -5.32763 -5.36622 8.79346 4.29833 -0.397083 -18.919 59.2845 737.746 -59.7637 -88.0627 283.628 -115.532104 -3.0952 5.32963 -43.0855 40.252 22.0393 0.0 107.157 0.0 17.1029 -40.4175 -91.1135 0.0 0.0 0.0 0.0 0.0 0.0 113.7783 -2.46984 -374.844 24.6182 18.4358 6.19682 0.0 104.831 0.0 16.4385 23.4466 55.7538 0.0 0.0 0.0 0.0 0.0 0.0 3.13382 -4.00358 13.5497 0.0 18.8235 0.0 -15.5243 -3.9290009 -1.11283 0.0 -30.8316 0.0 10.3793 -8.49584 2.29441 0.0 13.3553 0.0 14.6436 10.29852 -5.12809 0.0 -40.858498 0.0 
  -2.6326699829101563 0.7834190368652344 9.249429931640625 -47.8728 82.5552 465.259 2.42292 -5.26199 -5.33976 9.0582 3.9949 -0.39258 -20.2151 58.9933 738.971 -59.9889 -87.4057 283.191 -115.6994 -3.0318 5.71054 -43.0312 39.9903 22.2007 0.0 106.579 0.0 17.5619 -39.5881 -91.717 0.0 0.0 0.0 0.0 0.0 0.0 113.7041 -1.71621 -374.714 24.4432 19.9649 2.15911 0.0 109.464 0.0 -4.29786 11.408 49.8179 0.0 0.0 0.0 0.0 0.0 0.0 3.24259 -4.99117 12.6029 0.0 21.054 0.0 -15.2209 -4.3897 -0.376118 0.0 -30.6908 0.0 10.3021 -8.36399 2.03377 0.0 13.4715 0.0 14.7797 10.15516 -4.72609 0.0 -41.063 0.0 
  -2.6065301513671875 0.7686370086669921 9.251920166015625 -48.4784 82.7705 466.123 2.34973 -5.1228 -5.3 9.48553 3.58425 -0.295094 -20.744 59.2334 739.214 -66.2029 -87.1908 276.95 -116.0161 -2.94284 6.11958 -42.7913 39.8619 22.6014 0.0 105.817 0.0 17.7463 -38.6564 -91.7772 0.0 0.0 0.0 0.0 0.0 0.0 113.8845 -1.09641 -375.055 23.2845 22.4254 -1.63233 0.0 113.64 0.0 -29.9745 -2.21307 29.0939 0.0 0.0 0.0 0.0 0.0 0.0 3.57879 -6.52918 13.8225 0.0 24.315 0.0 -14.474 -4.0308 -1.02589 0.0 -30.5933 0.0 10.0381 -8.19593 2.38278 0.0 13.4774 0.0 15.2542 9.850679 -4.8623 0.0 -41.2669 0.0 
  -2.5805499267578127 0.7526129913330079 9.246220092773438 -47.6684 82.6437 465.551 3.05475 -5.02398 -5.10478 8.70896 3.21529 -0.157063 -18.9773 59.7103 737.279 -61.241 -87.7054 282.598 -115.6959 -2.71216 6.44753 -42.9836 39.8926 23.1652 0.0 105.0 0.0 17.7477 -39.0965 -90.9454 0.0 0.0 0.0 0.0 0.0 0.0 114.241 -0.530846 -375.821 22.4128 25.5256 -3.20588 0.0 115.376 0.0 -49.7464 -3.54494 1.0565 0.0 0.0 0.0 0.0 0.0 0.0 4.2793 -7.9791 14.172 0.0 27.6184 0.0 -14.7835 -3.8453999 -1.98696 0.0 -31.2542 0.0 10.1472 -7.9794 2.27561 0.0 13.5621 0.0 15.3417 9.5556 -4.79783 0.0 -41.1819 0.0 
  -2.5565899658203124 0.7356159973144532 9.24239013671875 -46.2549 82.6135 464.365 3.51562 -4.96886 -4.96969 8.00632 3.16631 -0.0798937 -16.8324 60.1418 734.982 -51.875 -88.2987 292.82 -115.3513 -2.50596 6.58586 -43.139 39.9016 23.7688 0.0 104.342 0.0 16.6868 -40.2795 -89.3293 0.0 0.0 0.0 0.0 0.0 0.0 114.458496 -0.152992 -376.272 21.2815 28.4277 -4.11863 0.0 115.56 0.0 -58.2611 3.13028 -18.3559 0.0 0.0 0.0 0.0 0.0 0.0 5.13143 -9.54754 14.3205 0.0 31.3855 0.0 -16.5088 -3.1305008 -4.09896 0.0 -31.5577 0.0 10.1748 -7.68054 1.87317 0.0 13.6552 0.0 15.2265 9.338039 -4.53867 0.0 -40.8647 0.0 
  -2.532790069580078 0.7217680358886719 9.240380249023438 -43.9296 82.6725 462.227 3.97449 -4.77842 -4.77234 7.0786 3.13711 0.0592794 -14.1748 60.6894 732.165 -27.8617 -88.9519 317.684 -114.8868 -2.26721 6.78101 -43.255 39.9367 24.5377 0.0 103.839 0.0 17.0576 -40.4484 -88.9264 0.0 0.0 0.0 0.0 0.0 0.0 114.617096 -0.0890414 -376.463 20.2267 31.0426 -5.27337 0.0 114.817 0.0 -60.5956 9.82571 -31.2485 0.0 0.0 0.0 0.0 0.0 0.0 5.91819 -11.011 13.9864 0.0 35.0661 0.0 -18.1661 -1.8232002 -6.33445 0.0 -31.8955 0.0 10.1481 -7.25671 1.77746 0.0 13.7453 0.0 15.4482 9.09647 -4.48869 0.0 -41.2611 0.0 
  -2.5076800537109376 0.7086900329589844 9.239299926757813 -41.3202 82.6984 459.796 4.40751 -4.58783 -4.57435 6.27021 3.17298 0.199593 -12.1248 61.1624 730.025 12.6453 -89.1395 358.685 -114.6915 -1.9616 7.00053 -43.2128 39.9986 25.0453 0.0 103.778 0.0 16.757 -41.9172 -87.7564 0.0 0.0 0.0 0.0 0.0 0.0 114.5794 -0.240533 -376.234 19.2342 33.561 -6.88285 0.0 113.642 0.0 -60.9449 12.4109 -37.0382 0.0 0.0 0.0 0.0 0.0 0.0 6.73516 -12.3764 13.4037 0.0 38.4944 0.0 -20.4058 -0.27040005 -8.82271 0.0 -32.6605 0.0 10.1746 -6.74812 1.85293 0.0 13.7356 0.0 15.6356 8.84673 -4.66033 0.0 -41.239998 0.0 
  -2.478560028076172 0.69720703125 9.23969970703125 -39.4065 82.6643 457.932 4.74138 -4.55784 -4.40041 5.74295 3.37403 0.319604 -10.9354 61.5372 728.848 42.8769 -89.021 389.194 -114.6461 -1.82306 7.22252 -43.1182 40.1236 25.5186 0.0 103.858 0.0 16.8831 -42.3776 -86.6258 0.0 0.0 0.0 0.0 0.0 0.0 114.3985 -0.484564 -375.659 18.3347 36.1122 -8.57353 0.0 112.258 0.0 -60.1304 11.9944 -41.7618 0.0 0.0 0.0 0.0 0.0 0.0 7.54525 -13.5717 12.472 0.0 41.2548 0.0 -23.2309 1.3760004 -11.6811 0.0 -34.4333 0.0 10.2915 -6.20457 2.72651 0.0 13.5399 0.0 15.8975 8.55125 -5.40201 0.0 -41.153603 0.0 
  -2.447969970703125 0.6863240051269531 9.241959838867187 -38.4234 82.6936 456.87 4.93724 -4.62833 -4.2103 5.25104 3.56245 0.474301 -9.74596 61.9525 727.637 60.4536 -88.7156 407.144 -114.6464 -1.68676 7.40661 -42.9862 40.1505 25.9984 0.0 104.063 0.0 17.373 -42.6032 -85.7746 0.0 0.0 0.0 0.0 0.0 0.0 114.2336 -0.534945 -375.077 17.7359 38.0907 -10.2176 0.0 110.983 0.0 -57.3949 8.95722 -42.6342 0.0 0.0 0.0 0.0 0.0 0.0 8.30531 -14.586 11.7525 0.0 43.1855 0.0 -24.8336 2.2134 -13.893 0.0 -36.243 0.0 10.2302 -5.8117 2.93657 0.0 13.4322 0.0 16.129 8.449989 -5.36909 0.0 -41.2107 0.0 
